<svg width="30" height="30" viewBox="0 0 33 33" fill="none" xmlns="http://www.w3.org/2000/svg">
<path d="M19.1178 23.4863L17.1843 21.5527C16.8068 21.1751 16.1946 21.1751 15.817 21.5527L13.8834 23.4863C13.277 24.0927 13.7063 25.1368 14.567 25.1368H18.4342C19.2917 25.1368 19.7265 24.0949 19.1178 23.4863Z" fill="white"/>
<path d="M10.6993 11.6016C8.03382 11.6016 5.86523 13.7701 5.86523 16.4356C5.86523 19.1011 8.03376 21.2697 10.6993 21.2697C13.3648 21.2697 15.5333 19.1011 15.5333 16.4355C15.5333 13.7701 13.3647 11.6016 10.6993 11.6016ZM10.6993 19.3489C9.10001 19.3489 7.786 18.0349 7.786 16.4356C7.786 14.8363 9.10001 13.5223 10.6993 13.5223C12.2986 13.5223 13.6126 14.8363 13.6126 16.4356C13.6126 18.0349 12.2986 19.3489 10.6993 19.3489Z" fill="white"/>
<path d="M22.3008 11.6016C19.6354 11.6016 17.4668 13.7701 17.4668 16.4356C17.4668 19.1011 19.6353 21.2697 22.3008 21.2697C24.9663 21.2697 27.1349 19.1011 27.1349 16.4356C27.1349 13.7701 24.9663 11.6016 22.3008 11.6016ZM22.3008 19.3489C20.7016 19.3489 19.3876 18.0349 19.3876 16.4356C19.3876 14.8363 20.7016 13.5223 22.3008 13.5223C23.9001 13.5223 25.2142 14.8363 25.2142 16.4356C25.2142 18.0349 23.9001 19.3489 22.3008 19.3489Z" fill="white"/>
<path d="M30.6866 17.466C31.6925 12.6493 30.2342 7.72741 26.7545 4.24759V4.24753C24.0153 1.50846 20.3735 0 16.5 0C12.6264 0 8.98461 1.50846 6.24535 4.24759C2.77332 7.71968 1.30076 12.6382 2.31326 17.4663C1.91732 18.6212 1.89528 19.8553 2.25196 21.0552C2.85808 23.093 4.54392 24.5982 6.66449 25.003C6.90909 25.0727 6.92346 25.0041 7.40312 25.0831C7.53506 25.1048 7.661 25.1231 7.7988 25.1323V28.872C7.7988 30.0446 8.48877 31.0913 9.55656 31.5384C11.1485 32.205 13.6451 32.9996 16.4986 32.9999C16.4991 32.9999 16.4995 32.9999 16.5 32.9999C16.5006 32.9999 16.5011 32.9999 16.5015 32.9999C19.3548 32.9996 21.8515 32.205 23.4437 31.5383C24.5114 31.0912 25.2013 30.0446 25.2013 28.8721V25.1277C25.3351 25.1187 25.46 25.1017 25.591 25.0817C26.102 25.0035 26.1224 25.0759 26.3798 24.9891C28.5012 24.5632 30.174 23.0466 30.7629 21.0037C31.104 19.8206 31.0768 18.6041 30.6866 17.466ZM28.9049 20.4682C28.5107 21.8361 27.3673 22.847 25.9201 23.1084C25.13 23.1325 25.2399 23.2907 24.4269 23.1256C23.8282 23.004 23.2677 23.4623 23.2677 24.073V28.8721C23.2677 29.2631 23.0436 29.6096 22.6969 29.7548C22.3434 29.9028 21.8678 30.0682 21.3213 30.245V28.1531C21.3213 27.6191 20.9013 27.1992 20.3674 27.1992C19.8334 27.1992 19.4006 27.632 19.4006 28.166V30.765C18.7954 30.8868 18.1328 30.9697 17.4541 31.0183V28.1531C17.4541 27.6192 17.0341 27.1992 16.5002 27.1992C15.9662 27.1992 15.5334 27.6321 15.5334 28.166V31.0312C14.8546 30.9826 14.192 30.8739 13.5869 30.7521V28.1531C13.5869 27.6192 13.1669 27.1992 12.633 27.1992C12.099 27.1992 11.6662 27.6321 11.6662 28.166V30.258C11.1197 30.0812 10.657 29.9029 10.3036 29.7549C9.95669 29.6096 9.71969 29.2502 9.71969 28.8592L9.71982 24.0607C9.71982 23.4508 9.17313 23.0043 8.57359 23.126C7.7114 23.3011 7.90102 23.1283 7.04869 23.1077C5.63163 22.8447 4.50615 21.8504 4.1057 20.504C3.84473 19.6261 3.88275 18.7248 4.21572 17.8975C4.28945 17.7142 4.30531 17.5128 4.26116 17.3204C3.26484 12.9776 4.59309 8.63498 7.61304 5.6149C9.98666 3.24096 13.1429 1.9207 16.5 1.9207C19.8571 1.9207 23.0133 3.2409 25.3872 5.61477C28.4622 8.68989 29.7153 13.0657 28.7392 17.3202C28.695 17.5127 28.7109 17.7141 28.7846 17.8973C29.113 18.7133 29.1546 19.6023 28.9049 20.4682Z" fill="white"/>
</svg>
