<svg width="20" height="20" viewBox="0 0 20 20" fill="none" xmlns="http://www.w3.org/2000/svg">
<path d="M13.5714 2.24138V3.84648L10.7143 6.32924V1H9.28571V6.32924L6.42857 3.84648V2.24138H5V12.1724C5.002 13.2162 5.43609 14.2245 6.22297 15.0131C7.00984 15.8017 8.09696 16.318 9.28571 16.4676V19H10.7143V16.4676C11.903 16.318 12.9902 15.8017 13.777 15.0131C14.5639 14.2245 14.998 13.2162 15 12.1724V2.24138H13.5714ZM9.28571 15.2132C8.47964 15.0692 7.75532 14.6882 7.23486 14.1343C6.71441 13.5804 6.42964 12.8875 6.42857 12.1724V10.5673L9.28571 13.0501V15.2132ZM9.28571 11.2948L6.42857 8.812V5.60179L9.28571 8.08455V11.2948ZM10.7143 8.08455L13.5714 5.60179V8.812L10.7143 11.2948V8.08455ZM10.7143 15.2132V13.0501L13.5714 10.5673V12.1724C13.5704 12.8875 13.2856 13.5804 12.7651 14.1343C12.2447 14.6882 11.5204 15.0692 10.7143 15.2132Z" fill="#FDB704"/>
</svg>
