<svg width="36" height="37" viewBox="0 0 36 37" fill="none" xmlns="http://www.w3.org/2000/svg">
<g clip-path="url(#clip0)" filter="url(#filter0_d)">
<path d="M13.7363 15.4643C13.7996 16.221 13.9448 17.2574 14.2735 18.3457C14.9715 20.6568 16.2045 22.3002 17.9403 23.2341C19.6761 22.3002 20.9092 20.6568 21.6071 18.3457C21.9358 17.2575 22.081 16.221 22.1443 15.4643L17.9403 13.3623L13.7363 15.4643Z" fill="#7FD68D"/>
<path d="M24.9982 14.0125C24.9894 13.8439 24.8907 13.6931 24.7397 13.6176L18.1499 10.3227C18.0179 10.2567 17.8626 10.2567 17.7306 10.3227L11.1408 13.6176C10.9898 13.6931 10.8911 13.8439 10.8823 14.0125C10.8773 14.1084 10.7689 16.3927 11.5471 19.0448C12.0075 20.614 12.6848 21.9845 13.56 23.1184C14.663 24.5472 16.0806 25.5983 17.7735 26.2425C17.8273 26.2629 17.8837 26.2732 17.9403 26.2732C17.9968 26.2732 18.0533 26.2629 18.107 26.2425C19.7999 25.5983 21.2175 24.5472 22.3205 23.1184C23.1957 21.9845 23.873 20.614 24.3334 19.0448C25.1116 16.3927 25.0032 14.1084 24.9982 14.0125ZM18.148 24.1817C18.0825 24.214 18.0114 24.2302 17.9403 24.2302C17.8691 24.2302 17.7979 24.214 17.7325 24.1817C15.6453 23.1497 14.1795 21.2774 13.376 18.6168C12.9741 17.2861 12.829 16.0321 12.7781 15.2146C12.7664 15.0268 12.8681 14.8503 13.0363 14.7662L17.7307 12.419C17.8626 12.3531 18.0179 12.353 18.1499 12.419L22.8443 14.7662C23.0125 14.8503 23.1142 15.0269 23.1025 15.2146C23.0515 16.0322 22.9064 17.2862 22.5046 18.6168C21.701 21.2773 20.2353 23.1496 18.148 24.1817Z" fill="#7FD68D"/>
</g>
<defs>
<filter id="filter0_d" x="-0.0595703" y="0.273193" width="36" height="36" filterUnits="userSpaceOnUse" color-interpolation-filters="sRGB">
<feFlood flood-opacity="0" result="BackgroundImageFix"/>
<feColorMatrix in="SourceAlpha" type="matrix" values="0 0 0 0 0 0 0 0 0 0 0 0 0 0 0 0 0 0 127 0"/>
<feOffset/>
<feGaussianBlur stdDeviation="5"/>
<feColorMatrix type="matrix" values="0 0 0 0 0.498039 0 0 0 0 0.839216 0 0 0 0 0.552941 0 0 0 0.5 0"/>
<feBlend mode="normal" in2="BackgroundImageFix" result="effect1_dropShadow"/>
<feBlend mode="normal" in="SourceGraphic" in2="effect1_dropShadow" result="shape"/>
</filter>
<clipPath id="clip0">
<rect width="16" height="16" fill="white" transform="translate(9.94043 10.2732)"/>
</clipPath>
</defs>
</svg>
