<svg width="20" height="20" viewBox="0 0 20 20" fill="none" xmlns="http://www.w3.org/2000/svg">
<path d="M14 12.2523C14 15.0139 12.2616 16.7523 9.5 16.7523C6.73844 16.7523 5 15.0139 5 12.2523C5 9.28891 8.22594 5.28828 9.21531 4.1311C9.25052 4.08998 9.2942 4.05698 9.34337 4.03435C9.39254 4.01172 9.44603 4 9.50016 4C9.55428 4 9.60777 4.01172 9.65694 4.03435C9.70611 4.05698 9.7498 4.08998 9.785 4.1311C10.7741 5.28828 14 9.28891 14 12.2523Z" stroke="#06F0FF" stroke-miterlimit="10"/>
<path d="M12.25 12.5024C12.25 13.0992 12.0129 13.6715 11.591 14.0934C11.169 14.5154 10.5967 14.7524 10 14.7524" stroke="#06F0FF" stroke-linecap="round" stroke-linejoin="round"/>
</svg>
