<svg width="25" height="25" viewBox="0 0 25 25" fill="none" xmlns="http://www.w3.org/2000/svg">
<g clip-path="url(#clip0)">
<path d="M6.02618 11.6044C6.02618 11.2164 6.34131 10.9013 6.72931 10.9013H10.4143C10.0739 8.58521 8.07697 6.80212 5.67242 6.80212C3.02948 6.80212 0.878906 8.95654 0.878906 11.6044C0.878906 14.2529 3.02948 16.4073 5.67242 16.4073C8.07751 16.4073 10.0739 14.6237 10.4143 12.3076H6.72931C6.34131 12.3076 6.02618 11.993 6.02618 11.6044Z" fill="white"/>
<path d="M24.5343 10.8348L22.1662 8.72034C21.8765 8.46198 21.4321 8.48688 21.1734 8.77655C20.9152 9.06623 20.9399 9.51099 21.2296 9.76935L22.4976 10.9013H10.4143C10.4484 11.1306 10.4658 11.3655 10.4658 11.6044C10.4658 11.843 10.4484 12.0779 10.4143 12.3076H22.4976L21.2296 13.4397C20.9399 13.6984 20.9152 14.1428 21.1734 14.4325C21.3127 14.5881 21.5048 14.6672 21.6984 14.6672C21.8648 14.6672 22.0322 14.6086 22.1662 14.4887L24.5343 12.3746C24.7509 12.181 24.8762 11.9045 24.8789 11.6138V11.5951C24.8762 11.3049 24.7509 11.0284 24.5343 10.8348Z" fill="white"/>
<path d="M14.9707 5.94244C14.9707 6.33081 15.2855 6.64557 15.6738 6.64557H23.3379C23.7261 6.64557 24.041 6.33081 24.041 5.94244C24.041 5.55408 23.7261 5.23932 23.3379 5.23932H15.6738C15.2855 5.23932 14.9707 5.55408 14.9707 5.94244Z" fill="white"/>
<path d="M10.5992 4.30219H16.5295C16.9178 4.30219 17.2326 3.98743 17.2326 3.59906C17.2326 3.21069 16.9178 2.89594 16.5295 2.89594H10.5992C10.2109 2.89594 9.89612 3.21069 9.89612 3.59906C9.89612 3.98743 10.2109 4.30219 10.5992 4.30219Z" fill="white"/>
<path d="M18.8604 4.30219H19.9572C20.3454 4.30219 20.6603 3.98743 20.6603 3.59906C20.6603 3.21069 20.3454 2.89594 19.9572 2.89594H18.8604C18.472 2.89594 18.1573 3.21069 18.1573 3.59906C18.1573 3.98743 18.472 4.30219 18.8604 4.30219Z" fill="white"/>
<path d="M10.9252 6.59833C10.5368 6.59833 10.222 6.91327 10.222 7.30145C10.222 7.68982 10.5368 8.00458 10.9252 8.00458H12.022C12.4103 8.00458 12.7251 7.68982 12.7251 7.30145C12.7251 6.91327 12.4103 6.59833 12.022 6.59833H10.9252Z" fill="white"/>
<path d="M12.9611 15.0347C13.3493 15.0347 13.6642 14.72 13.6642 14.3316C13.6642 13.9432 13.3493 13.6285 12.9611 13.6285H11.8641C11.476 13.6285 11.161 13.9432 11.161 14.3316C11.161 14.72 11.476 15.0347 11.8641 15.0347H12.9611Z" fill="white"/>
<path d="M9.24115 19.3492H5.32709C4.93872 19.3492 4.62396 19.6642 4.62396 20.0524C4.62396 20.4407 4.93872 20.7555 5.32709 20.7555H9.24115C9.62952 20.7555 9.94427 20.4407 9.94427 20.0524C9.94427 19.6642 9.62952 19.3492 9.24115 19.3492Z" fill="white"/>
<path d="M12.6689 19.3492H11.5719C11.1837 19.3492 10.8688 19.6642 10.8688 20.0524C10.8688 20.4407 11.1837 20.7555 11.5719 20.7555H12.6689C13.0571 20.7555 13.372 20.4407 13.372 20.0524C13.372 19.6642 13.0573 19.3492 12.6689 19.3492Z" fill="white"/>
<path d="M18.0657 17.0059H8.85425C8.46588 17.0059 8.15112 17.3208 8.15112 17.709C8.15112 18.0974 8.46588 18.4121 8.85425 18.4121H18.0657C18.4541 18.4121 18.7689 18.0974 18.7689 17.709C18.7689 17.3208 18.4541 17.0059 18.0657 17.0059Z" fill="white"/>
<path d="M17.7398 20.7084H16.643C16.2548 20.7084 15.9399 21.0232 15.9399 21.4116C15.9399 21.7999 16.2548 22.1147 16.643 22.1147H17.7398C18.1282 22.1147 18.4429 21.7999 18.4429 21.4116C18.4429 21.0232 18.1282 20.7084 17.7398 20.7084Z" fill="white"/>
</g>
<defs>
<clipPath id="clip0">
<rect width="24" height="24" fill="white" transform="translate(0.878906 0.50531)"/>
</clipPath>
</defs>
</svg>
