<?xml version="1.0" encoding="iso-8859-1"?>
<!-- Generator: Adobe Illustrator 19.0.0, SVG Export Plug-In . SVG Version: 6.00 Build 0)  -->
<svg version="1.1" id="Layer_1" xmlns="http://www.w3.org/2000/svg" xmlns:xlink="http://www.w3.org/1999/xlink" x="0px" y="0px"
	fill="#868686" viewBox="0 0 512 512" style="enable-background:new 0 0 512 512;" xml:space="preserve">
<g>
	<g>
		<path d="M162.212,452.21h0.911V153.656c0-5.925-0.775-145.069-68.267-145.069S26.59,147.731,26.59,153.656V452.21h-1.069
			C11.45,452.21,0,463.694,0,477.81s11.45,25.6,25.521,25.6h136.692c14.071,0,25.521-11.483,25.521-25.6
			S176.283,452.21,162.212,452.21z M93.867,25.544c38.921,0,49.679,78.933,51.042,119.467H42.821
			C44.163,104.477,54.896,25.544,93.867,25.544z M146.056,162.077V452.21h-102.4V162.077H146.056z M162.212,486.344H25.521
			c-4.742,0-8.454-3.75-8.454-8.533c0-4.708,3.792-8.533,8.454-8.533h8.612H153.6h8.612c4.742,0,8.454,3.75,8.454,8.533
			C170.667,482.519,166.875,486.344,162.212,486.344z"/>
	</g>
</g>
<g>

</g>
<g>
</g>
<g>
</g>
<g>
</g>
<g>
</g>
<g>
</g>
<g>
</g>
<g>
</g>
<g>
</g>
<g>
</g>
<g>
</g>
<g>
</g>
<g>
</g>
<g>
</g>
<g>
</g>
<g>
</g>
<g>
</g>
</svg>
