<svg width="25" height="25" viewBox="0 0 25 25" fill="none" xmlns="http://www.w3.org/2000/svg">
<g clip-path="url(#clip0)">
<path d="M13.6478 2.04242C13.3485 2.04242 13.052 2.05425 12.7586 2.07723V4.41047C12.7586 4.98053 12.3128 5.45209 11.7437 5.48402C10.9784 5.52696 10.2395 5.70583 9.54753 6.01567C8.85392 6.32628 8.22558 6.7604 7.67994 7.30599C7.13433 7.8516 6.7002 8.47994 6.3896 9.17358C6.07976 9.86553 5.90086 10.6044 5.85794 11.3697C5.82602 11.9388 5.35446 12.3847 4.7844 12.3847H2.45119C2.42821 12.6781 2.41635 12.9746 2.41635 13.2739C2.41635 19.4769 7.44486 24.5053 13.6478 24.5053C19.8508 24.5053 24.8793 19.4768 24.8793 13.2739C24.8793 7.07093 19.8508 2.04242 13.6478 2.04242ZM18.4704 18.0965C17.1822 19.3847 15.4696 20.0941 13.6478 20.0941C11.826 20.0941 10.1134 19.3847 8.82517 18.0965C7.53698 16.8084 6.82758 15.0957 6.82758 13.2739C6.82758 11.4521 7.53701 9.73944 8.82517 8.45125C10.1133 7.16308 11.826 6.45366 13.6478 6.45366C15.4695 6.45366 17.1822 7.16308 18.4704 8.45125C19.7586 9.73941 20.468 11.4521 20.468 13.2739C20.468 15.0957 19.7586 16.8084 18.4704 18.0965Z" fill="white"/>
<path d="M13.6488 7.76529C10.6114 7.76529 8.1402 10.2365 8.1402 13.2739C8.1402 16.3114 10.6114 18.7826 13.6488 18.7826C16.6863 18.7826 19.1574 16.3114 19.1574 13.2739C19.1574 10.2365 16.6862 7.76529 13.6488 7.76529ZM13.6488 8.95564C13.9893 8.95564 14.2654 9.2317 14.2654 9.57226C14.2654 9.9128 13.9894 10.1889 13.6488 10.1889C13.3082 10.1889 13.0322 9.91282 13.0322 9.57226C13.0322 9.23173 13.3082 8.95564 13.6488 8.95564ZM9.91057 13.9271C9.57006 13.9271 9.29395 13.6511 9.29395 13.3105C9.29395 12.97 9.57001 12.6939 9.91057 12.6939C10.2511 12.6939 10.5272 12.9699 10.5272 13.3105C10.5272 13.651 10.2511 13.9271 9.91057 13.9271ZM13.6488 17.6654C13.3083 17.6654 13.0322 17.3893 13.0322 17.0487C13.0322 16.7082 13.3082 16.4321 13.6488 16.4321C13.9893 16.4321 14.2654 16.7082 14.2654 17.0487C14.2654 17.3893 13.9893 17.6654 13.6488 17.6654ZM13.6488 15.2422C12.5618 15.2422 11.6806 14.3609 11.6806 13.2739C11.6806 12.1869 12.5618 11.3057 13.6488 11.3057C14.7358 11.3057 15.617 12.1869 15.617 13.2739C15.617 14.3609 14.7358 15.2422 13.6488 15.2422ZM18.0036 13.3105C18.0036 13.651 17.7276 13.9271 17.387 13.9271C17.0464 13.9271 16.7704 13.6511 16.7704 13.3105C16.7704 12.97 17.0464 12.6939 17.387 12.6939C17.7276 12.6939 18.0036 12.97 18.0036 13.3105Z" fill="white"/>
<path d="M1.29916 11.7289H2.52198H4.7845C5.00702 11.7289 5.19083 11.5552 5.20329 11.333C5.29848 9.63594 6.00481 8.05383 7.21633 6.84228C8.42789 5.63077 10.01 4.92446 11.7071 4.82927C11.9292 4.81681 12.1029 4.63301 12.1029 4.41049V2.14796V0.925115C12.1029 0.693467 11.9156 0.50531 11.6859 0.50531C11.6806 0.50531 11.6753 0.505415 11.67 0.505625C5.8113 0.727699 1.10174 5.43726 0.879667 11.2959C0.870696 11.5327 1.06216 11.7289 1.29916 11.7289Z" fill="white"/>
</g>
<defs>
<clipPath id="clip0">
<rect width="24" height="24" fill="white" transform="translate(0.878906 0.50531)"/>
</clipPath>
</defs>
</svg>
