<svg width="23" height="23" viewBox="0 0 23 23" fill="none" xmlns="http://www.w3.org/2000/svg">
<g clip-path="url(#clip0)">
<path d="M21.7721 4.97165L8.29818 2.12018C7.72812 1.99958 7.16309 2.36736 7.04248 2.93742L6.7865 4.58247L22.3332 7.87239L22.5891 6.22734C22.7097 5.6575 22.3422 5.09229 21.7721 4.97165Z" fill="white"/>
<path d="M16.1057 8.22139C15.9483 7.65463 15.3561 7.31963 14.7895 7.47676L12.2316 8.18684L6.20166 6.91069L5.53849 10.0441L1.39499 11.1941C0.828447 11.3513 0.493448 11.9436 0.650577 12.5102L2.98568 20.9248C3.14306 21.4913 3.73538 21.8266 4.30192 21.6692L17.6964 17.9521C18.263 17.7947 18.5979 17.2026 18.4408 16.6358L18.04 15.1913L19.5422 15.5089C20.1123 15.6297 20.6773 15.2619 20.7979 14.6919L21.7484 10.2007L16.3373 9.0556L16.1057 8.22139ZM17.6526 12.4981L17.9839 10.9324C18.0336 10.698 18.266 10.5468 18.5004 10.5963L20.066 10.9278C20.3007 10.9776 20.4519 11.2097 20.4024 11.4444L20.0711 13.01C20.0213 13.2444 19.7889 13.3958 19.5545 13.3461L17.9889 13.0148C17.7541 12.9649 17.6028 12.7325 17.6526 12.4981ZM1.62807 12.0339L5.33485 11.0055L14.0809 8.57843L15.0221 8.31694C15.0393 8.3123 15.0564 8.31011 15.0732 8.31011C15.1487 8.31011 15.2389 8.35965 15.2653 8.45451L15.3758 8.85246L15.722 10.1L1.94722 13.9226L1.4905 12.2773C1.46189 12.1741 1.52487 12.0625 1.62807 12.0339ZM17.6009 16.8687C17.6185 16.9325 17.6 16.9853 17.5813 17.0184C17.5628 17.0514 17.5271 17.0945 17.4633 17.1121L4.06905 20.8292C4.05212 20.8339 4.03472 20.8363 4.01796 20.8363C3.94247 20.8363 3.85221 20.7865 3.82582 20.6917L2.46383 15.7836L16.2387 11.9608L17.0788 14.9879L17.6009 16.8687Z" fill="white"/>
<path d="M6.23326 17.2046C6.16898 16.9734 5.92773 16.837 5.69663 16.901L4.13235 17.3353C3.90146 17.3994 3.76478 17.6408 3.82906 17.8719L4.26309 19.436C4.32737 19.6671 4.56861 19.8036 4.79972 19.7393L6.364 19.3053C6.59511 19.2412 6.73157 18.9998 6.66751 18.7686L6.23326 17.2046Z" fill="white"/>
</g>
<defs>
<clipPath id="clip0">
<rect width="22" height="22" fill="white" transform="translate(0.611816 0.902588)"/>
</clipPath>
</defs>
</svg>
