<svg width="21" height="25" viewBox="0 0 21 25" fill="none" xmlns="http://www.w3.org/2000/svg">
<path d="M20.7324 3.65185L18.7324 1.65184C18.537 1.45651 18.2206 1.45651 18.0254 1.65184C17.83 1.84716 17.83 2.16357 18.0254 2.35885L19.6718 4.00533L18.0254 5.65181C17.9316 5.74556 17.8789 5.87249 17.8789 6.00534V7.50533C17.8789 8.60839 18.7759 9.50534 19.8789 9.50534V18.0053C19.8789 18.2812 19.6548 18.5053 19.3789 18.5053C19.103 18.5053 18.8788 18.2812 18.8788 18.0053V17.0053C18.8788 16.1782 18.206 15.5053 17.3789 15.5053H16.8789V2.50538C16.8789 1.40232 15.9819 0.505371 14.8789 0.505371H4.87892C3.77591 0.505371 2.87892 1.40232 2.87892 2.50538V20.5053C1.7759 20.5053 0.878906 21.4023 0.878906 22.5053V24.0053C0.878906 24.2817 1.10255 24.5053 1.37892 24.5053H18.3789C18.6553 24.5053 18.8789 24.2817 18.8789 24.0053V22.5053C18.8789 21.4023 17.9819 20.5053 16.8789 20.5053V16.5054H17.3789C17.6548 16.5054 17.8789 16.7295 17.8789 17.0054V18.0053C17.8789 18.8325 18.5518 19.5053 19.3789 19.5053C20.2061 19.5053 20.8789 18.8325 20.8789 18.0053V4.00538C20.8789 3.87253 20.8261 3.74559 20.7324 3.65185ZM14.8789 9.01461C14.8789 9.29098 14.6552 9.51462 14.3789 9.51462H5.37889C5.10252 9.51462 4.87888 9.29098 4.87888 9.01461V3.00535C4.87888 2.72897 5.10252 2.50533 5.37889 2.50533H14.3789C14.6552 2.50533 14.8789 2.72897 14.8789 3.00535V9.01461Z" fill="white"/>
</svg>
