<svg width="23" height="23" viewBox="0 0 23 23" fill="none" xmlns="http://www.w3.org/2000/svg">
<g clip-path="url(#clip0)">
<path d="M20.7687 8.13694H17.2453V2.12251C17.2453 1.58249 16.9711 1.09059 16.5117 0.806653C16.0524 0.522762 15.4898 0.497411 15.0067 0.738935C15.0005 0.742029 14.9944 0.745208 14.9883 0.748474L2.23624 7.61143C1.31676 8.1063 0.745544 9.06243 0.745544 10.1066V10.1135V10.5432V20.5977C0.745544 21.6875 1.63224 22.5742 2.72208 22.5742H20.7687C21.8586 22.5742 22.7452 21.6875 22.7452 20.5977V10.1135C22.7452 9.02363 21.8586 8.13694 20.7687 8.13694ZM15.6555 8.13694H5.0137C4.79048 8.13694 4.71533 7.83869 4.91187 7.73291L15.6276 1.96589C15.6958 1.93452 15.7527 1.95403 15.7888 1.97633C15.826 1.99932 15.8703 2.04336 15.8703 2.12255V7.92214C15.8703 8.04077 15.7741 8.13694 15.6555 8.13694ZM18.6203 16.7306C17.8621 16.7306 17.2453 16.1138 17.2453 15.3556C17.2453 14.5974 17.8621 13.9806 18.6203 13.9806C19.3785 13.9806 19.9953 14.5974 19.9953 15.3556C19.9953 16.1138 19.3784 16.7306 18.6203 16.7306Z" fill="white"/>
</g>
<defs>
<clipPath id="clip0">
<rect width="22" height="22" fill="white" transform="translate(0.744629 0.57428)"/>
</clipPath>
</defs>
</svg>
