<svg width="23" height="23" viewBox="0 0 23 23" fill="none" xmlns="http://www.w3.org/2000/svg">
<g clip-path="url(#clip0)" filter="url(#filter0_d)">
<path d="M16.333 6.4871C15.0117 5.10787 13.1834 4.32951 11.2734 4.33302C7.41338 4.32816 4.28026 7.45337 4.2754 11.3134C4.27299 13.222 5.05127 15.0486 6.42947 16.369C6.43348 16.373 6.43498 16.379 6.43896 16.3826C6.47944 16.4215 6.52343 16.4545 6.56443 16.492C6.67689 16.592 6.78935 16.6955 6.90782 16.7919C6.97129 16.8419 7.03727 16.8919 7.10226 16.9379C7.21422 17.0213 7.32619 17.1048 7.44313 17.1818C7.52262 17.2318 7.60459 17.2818 7.68604 17.3317C7.79399 17.3967 7.90148 17.4622 8.01294 17.5217C8.10743 17.5717 8.20387 17.6146 8.29984 17.6601C8.40481 17.7101 8.50828 17.7601 8.61574 17.8051C8.72319 17.85 8.83117 17.885 8.94012 17.924C9.04907 17.963 9.14305 17.999 9.24752 18.031C9.36549 18.0665 9.48644 18.0939 9.6064 18.1234C9.70636 18.1479 9.80333 18.1759 9.90631 18.1959C10.0442 18.2234 10.1842 18.2409 10.3242 18.2599C10.4107 18.2719 10.4951 18.2889 10.5826 18.2974C10.8115 18.3199 11.0424 18.3324 11.2753 18.3324C11.5083 18.3324 11.7392 18.3199 11.9681 18.2974C12.0556 18.2889 12.14 18.2719 12.2265 18.2599C12.3665 18.2409 12.5064 18.2234 12.6444 18.1959C12.7443 18.1759 12.8443 18.1459 12.9443 18.1234C13.0642 18.0939 13.1852 18.0664 13.3032 18.031C13.4076 17.999 13.5086 17.96 13.6106 17.924C13.7125 17.888 13.8285 17.849 13.9349 17.8051C14.0414 17.7611 14.1459 17.7096 14.2508 17.6601C14.3468 17.6146 14.4433 17.5716 14.5377 17.5217C14.6492 17.4622 14.7567 17.3967 14.8646 17.3317C14.9461 17.2818 15.0281 17.2363 15.1075 17.1818C15.2245 17.1048 15.3365 17.0214 15.4484 16.9379C15.5134 16.8879 15.5794 16.8429 15.6429 16.7919C15.7613 16.6969 15.8738 16.596 15.9862 16.492C16.0272 16.4545 16.0712 16.4216 16.1117 16.3826C16.1157 16.3791 16.1172 16.3731 16.1212 16.369C18.9086 13.6987 19.0034 9.27439 16.333 6.4871ZM15.2096 15.8457C15.1186 15.9257 15.0247 16.0017 14.9297 16.0752C14.8737 16.1181 14.8177 16.1606 14.7603 16.2016C14.6698 16.2671 14.5778 16.3291 14.4843 16.3886C14.4164 16.432 14.3469 16.474 14.2769 16.515C14.1889 16.565 14.0994 16.615 14.009 16.665C13.929 16.7059 13.8475 16.7445 13.7656 16.7824C13.6836 16.8204 13.5931 16.8609 13.5047 16.8964C13.4162 16.9319 13.3222 16.9654 13.2297 16.9964C13.1453 17.0253 13.0608 17.0553 12.9753 17.0808C12.8754 17.1108 12.7709 17.1353 12.6674 17.1603C12.5864 17.1793 12.5065 17.2008 12.4245 17.2168C12.306 17.2398 12.1851 17.2558 12.0636 17.2723C11.9947 17.2813 11.9262 17.2938 11.8567 17.3008C11.6647 17.3192 11.4703 17.3303 11.2739 17.3303C11.0774 17.3303 10.883 17.3193 10.6911 17.3008C10.6216 17.2938 10.5531 17.2813 10.4841 17.2723C10.3627 17.2558 10.2417 17.2398 10.1232 17.2168C10.0413 17.2008 9.96128 17.1793 9.88033 17.1603C9.77686 17.1353 9.67388 17.1103 9.57243 17.0808C9.48697 17.0553 9.40248 17.0253 9.31801 16.9964C9.22555 16.9644 9.13306 16.9319 9.04309 16.8964C8.95312 16.8609 8.86816 16.8219 8.78217 16.7824C8.69619 16.743 8.61872 16.706 8.53877 16.665C8.4483 16.618 8.35883 16.5685 8.27085 16.515C8.20088 16.474 8.13138 16.432 8.06341 16.3886C7.96995 16.3291 7.87796 16.2671 7.78749 16.2016C7.73 16.1606 7.67403 16.1181 7.61804 16.0752C7.52306 16.0017 7.4291 15.9252 7.33814 15.8457C7.31614 15.8292 7.29614 15.8082 7.27467 15.7892C7.29702 14.0889 8.38934 12.5875 10.0003 12.0429C10.8058 12.4261 11.741 12.4261 12.5465 12.0429C14.1574 12.5875 15.2497 14.0889 15.2721 15.7892C15.2511 15.8082 15.2311 15.8272 15.2096 15.8457ZM9.5304 8.34063C10.0716 7.37813 11.2906 7.03661 12.2531 7.57781C13.2156 8.11901 13.5571 9.33797 13.0159 10.3005C12.8363 10.6198 12.5724 10.8837 12.2531 11.0633C12.2506 11.0633 12.2476 11.0633 12.2446 11.0663C12.112 11.14 11.9719 11.1994 11.8267 11.2432C11.8007 11.2507 11.7767 11.2607 11.7492 11.2672C11.6992 11.2802 11.6468 11.2892 11.5953 11.2982C11.4983 11.3152 11.4002 11.325 11.3019 11.3277H11.2449C11.1465 11.325 11.0484 11.3152 10.9515 11.2982C10.9015 11.2892 10.8485 11.2802 10.7975 11.2672C10.771 11.2607 10.7476 11.2507 10.7201 11.2432C10.5748 11.1994 10.4348 11.1401 10.3022 11.0663L10.2932 11.0633C9.33072 10.5221 8.98921 9.30312 9.5304 8.34063ZM16.1588 14.7981C15.838 13.302 14.8529 12.0337 13.4827 11.3527C14.6027 10.1326 14.5216 8.23546 13.3015 7.11537C12.0814 5.99528 10.1842 6.0764 9.06412 7.29654C8.01113 8.4436 8.01113 10.2057 9.06412 11.3527C7.69392 12.0337 6.70876 13.302 6.388 14.7981C4.47133 12.0983 5.10616 8.35591 7.80594 6.43924C10.5057 4.52257 14.2481 5.1574 16.1648 7.85718C16.8853 8.87207 17.272 10.0861 17.2714 11.3307C17.2714 12.5743 16.8824 13.7867 16.1588 14.7981Z" fill="white" fill-opacity="0.5"/>
</g>
<defs>
<filter id="filter0_d" x="0.275391" y="0.332031" width="22" height="22" filterUnits="userSpaceOnUse" color-interpolation-filters="sRGB">
<feFlood flood-opacity="0" result="BackgroundImageFix"/>
<feColorMatrix in="SourceAlpha" type="matrix" values="0 0 0 0 0 0 0 0 0 0 0 0 0 0 0 0 0 0 127 0" result="hardAlpha"/>
<feOffset/>
<feGaussianBlur stdDeviation="2"/>
<feColorMatrix type="matrix" values="0 0 0 0 0.690196 0 0 0 0 0.729412 0 0 0 0 0.85098 0 0 0 0.25 0"/>
<feBlend mode="normal" in2="BackgroundImageFix" result="effect1_dropShadow"/>
<feBlend mode="normal" in="SourceGraphic" in2="effect1_dropShadow" result="shape"/>
</filter>
<clipPath id="clip0">
<rect width="14" height="14" fill="white" transform="translate(4.27539 4.33203)"/>
</clipPath>
</defs>
</svg>
