<svg width="19" height="23" viewBox="0 0 19 23" fill="none" xmlns="http://www.w3.org/2000/svg">
<g clip-path="url(#clip0)" filter="url(#filter0_d)">
<path d="M13.4629 18.7612H5.58789C4.86456 18.7612 4.27539 18.1726 4.27539 17.4487V11.3237C4.27539 10.5998 4.86456 10.0112 5.58789 10.0112H13.4629C14.1862 10.0112 14.7754 10.5998 14.7754 11.3237V17.4487C14.7754 18.1726 14.1862 18.7612 13.4629 18.7612ZM5.58789 10.8862C5.34697 10.8862 5.15039 11.0822 5.15039 11.3237V17.4487C5.15039 17.6902 5.34697 17.8862 5.58789 17.8862H13.4629C13.7038 17.8862 13.9004 17.6902 13.9004 17.4487V11.3237C13.9004 11.0822 13.7038 10.8862 13.4629 10.8862H5.58789Z" fill="white" fill-opacity="0.5"/>
<path d="M12.5879 10.8862C12.3464 10.8862 12.1504 10.6902 12.1504 10.4487V8.26123C12.1504 6.81398 10.9726 5.63623 9.52539 5.63623C8.07814 5.63623 6.90039 6.81398 6.90039 8.26123V10.4487C6.90039 10.6902 6.70439 10.8862 6.46289 10.8862C6.22139 10.8862 6.02539 10.6902 6.02539 10.4487V8.26123C6.02539 6.33098 7.59514 4.76123 9.52539 4.76123C11.4556 4.76123 13.0254 6.33098 13.0254 8.26123V10.4487C13.0254 10.6902 12.8294 10.8862 12.5879 10.8862Z" fill="white" fill-opacity="0.5"/>
<path d="M9.52555 14.6781C8.88214 14.6781 8.35889 14.1548 8.35889 13.5114C8.35889 12.868 8.88214 12.3447 9.52555 12.3447C10.169 12.3447 10.6922 12.868 10.6922 13.5114C10.6922 14.1548 10.169 14.6781 9.52555 14.6781ZM9.52555 13.2197C9.36514 13.2197 9.23389 13.3504 9.23389 13.5114C9.23389 13.6724 9.36514 13.8031 9.52555 13.8031C9.68597 13.8031 9.81722 13.6724 9.81722 13.5114C9.81722 13.3504 9.68597 13.2197 9.52555 13.2197Z" fill="white" fill-opacity="0.5"/>
<path d="M9.52539 16.4279C9.28389 16.4279 9.08789 16.2319 9.08789 15.9904V14.3862C9.08789 14.1447 9.28389 13.9487 9.52539 13.9487C9.76689 13.9487 9.96289 14.1447 9.96289 14.3862V15.9904C9.96289 16.2319 9.76689 16.4279 9.52539 16.4279Z" fill="white" fill-opacity="0.5"/>
</g>
<defs>
<filter id="filter0_d" x="-1.47461" y="0.76123" width="22" height="22" filterUnits="userSpaceOnUse" color-interpolation-filters="sRGB">
<feFlood flood-opacity="0" result="BackgroundImageFix"/>
<feColorMatrix in="SourceAlpha" type="matrix" values="0 0 0 0 0 0 0 0 0 0 0 0 0 0 0 0 0 0 127 0" result="hardAlpha"/>
<feOffset/>
<feGaussianBlur stdDeviation="2"/>
<feColorMatrix type="matrix" values="0 0 0 0 0.690196 0 0 0 0 0.729412 0 0 0 0 0.85098 0 0 0 0.25 0"/>
<feBlend mode="normal" in2="BackgroundImageFix" result="effect1_dropShadow"/>
<feBlend mode="normal" in="SourceGraphic" in2="effect1_dropShadow" result="shape"/>
</filter>
<clipPath id="clip0">
<rect width="14" height="14" fill="white" transform="translate(2.52539 4.76123)"/>
</clipPath>
</defs>
</svg>
