<svg width="25" height="25" viewBox="0 0 25 25" fill="none" xmlns="http://www.w3.org/2000/svg">
<g clip-path="url(#clip0)">
<path d="M22.0321 1.1127C21.6662 0.720483 21.1616 0.504395 20.6111 0.504395H19.0983C17.9834 0.504395 16.9193 1.39772 16.7266 2.49584L16.6312 3.03891C16.5353 3.58538 16.6644 4.10297 16.9948 4.49639C17.3251 4.8898 17.8126 5.10639 18.3674 5.10639H20.3216C20.5927 5.10639 20.855 5.05224 21.0986 4.95614L20.891 6.7305C20.691 6.64648 20.4716 6.60172 20.2409 6.60172H18.0113C17.0561 6.60172 16.1179 7.36188 15.9197 8.29616L13.9485 17.5898L4.64766 16.9214C4.14505 16.8855 3.72546 17.0558 3.46532 17.3903C3.22166 17.7036 3.15043 18.1238 3.26461 18.5738L4.34595 22.8314C4.58023 23.7538 5.54518 24.5044 6.49685 24.5044H14.2941H14.4131H18.3821C19.3465 24.5044 20.2139 23.7241 20.3156 22.765L21.8413 8.38098C21.85 8.29876 21.851 8.21774 21.8482 8.13752L22.3704 3.67709C22.4441 3.48498 22.491 3.28078 22.5057 3.06898L22.5402 2.57247C22.5786 2.02341 22.3981 1.50501 22.0321 1.1127Z" fill="white"/>
</g>
<defs>
<clipPath id="clip0">
<rect width="24" height="24" fill="white" transform="translate(0.878906 0.504395)"/>
</clipPath>
</defs>
</svg>
