<svg width="25" height="25" viewBox="0 0 25 25" fill="none" xmlns="http://www.w3.org/2000/svg">
<g clip-path="url(#clip0)">
<path d="M23.8789 19.5053H21.2159C20.7829 18.0643 19.4589 17.0053 17.8789 17.0053C16.299 17.0053 14.9759 18.0643 14.5419 19.5053H1.87889C1.32689 19.5053 0.878906 19.9533 0.878906 20.5053C0.878906 21.0573 1.32689 21.5053 1.87889 21.5053H14.5419C14.9749 22.9463 16.2989 24.0053 17.8789 24.0053C19.4588 24.0053 20.7819 22.9463 21.2159 21.5053H23.8789C24.4319 21.5053 24.8789 21.0573 24.8789 20.5053C24.8789 19.9533 24.4319 19.5053 23.8789 19.5053ZM17.8789 22.0053C17.0519 22.0053 16.3789 21.3323 16.3789 20.5053C16.3789 19.6783 17.0519 19.0053 17.8789 19.0053C18.7059 19.0053 19.3789 19.6783 19.3789 20.5053C19.3789 21.3323 18.7059 22.0053 17.8789 22.0053Z" fill="white"/>
<path d="M23.8789 3.50532H21.2159C20.7819 2.06434 19.4589 1.00534 17.8789 1.00534C16.299 1.00534 14.9759 2.06434 14.5419 3.50532H1.87889C1.32689 3.50532 0.878906 3.95331 0.878906 4.50531C0.878906 5.05731 1.32689 5.50529 1.87889 5.50529H14.5419C14.9759 6.94632 16.2989 8.00533 17.8789 8.00533C19.4589 8.00533 20.7819 6.94632 21.2159 5.50534H23.8789C24.4319 5.50534 24.8789 5.05736 24.8789 4.50536C24.8789 3.95336 24.4319 3.50532 23.8789 3.50532ZM17.8789 6.00531C17.0519 6.00531 16.3789 5.33232 16.3789 4.50531C16.3789 3.67829 17.0519 3.00531 17.8789 3.00531C18.7059 3.00531 19.3789 3.67829 19.3789 4.50531C19.3789 5.33232 18.7059 6.00531 17.8789 6.00531Z" fill="white"/>
<path d="M23.8789 11.5054H11.2159C10.7819 10.0644 9.45891 9.00537 7.87894 9.00537C6.29897 9.00537 4.97592 10.0644 4.54195 11.5054H1.87889C1.32689 11.5054 0.878906 11.9533 0.878906 12.5053C0.878906 13.0573 1.32689 13.5053 1.87889 13.5053H4.54191C4.97592 14.9463 6.29892 16.0053 7.87889 16.0053C9.45886 16.0053 10.7819 14.9463 11.2159 13.5053H23.8789C24.4319 13.5053 24.8789 13.0573 24.8789 12.5053C24.8789 11.9533 24.4319 11.5054 23.8789 11.5054ZM7.87889 14.0054C7.05187 14.0054 6.37889 13.3324 6.37889 12.5053C6.37889 11.6783 7.05187 11.0053 7.87889 11.0053C8.70591 11.0053 9.37889 11.6783 9.37889 12.5053C9.37889 13.3324 8.70591 14.0054 7.87889 14.0054Z" fill="white"/>
</g>
<defs>
<clipPath id="clip0">
<rect width="24" height="24" fill="white" transform="translate(0.878906 0.50531)"/>
</clipPath>
</defs>
</svg>
