<svg width="25" height="25" viewBox="0 0 25 25" fill="none" xmlns="http://www.w3.org/2000/svg">
<g clip-path="url(#clip0)">
<path d="M12.175 2.15317C9.46458 2.30875 6.92283 3.36198 4.89404 5.17009L8.03166 8.30771C9.21244 7.3247 10.6462 6.73065 12.175 6.59096V2.15317Z" fill="white"/>
<path d="M7.03708 9.30176L3.8995 6.16418C2.08985 8.19241 1.0353 10.7343 0.878738 13.4454H5.31672C5.45735 11.9163 6.05266 10.4824 7.03708 9.30176Z" fill="white"/>
<path d="M20.4401 13.4454H24.8781C24.7215 10.7343 23.667 8.19241 21.8573 6.16418L18.7197 9.30176C19.7041 10.4824 20.2995 11.9163 20.4401 13.4454Z" fill="white"/>
<path d="M20.4404 14.8517C20.3418 15.9346 20.0327 16.8379 19.6672 17.5624C20.0238 18.1123 20.3211 18.577 20.5175 18.8857C21.0523 19.7262 20.9339 20.8052 20.2295 21.5097C20.0584 21.6807 19.863 21.8185 19.6513 21.9204L20.382 22.6512C20.5196 22.7887 20.6999 22.8575 20.8801 22.8575C21.0604 22.8575 21.2406 22.7887 21.3781 22.6512C23.4839 20.5456 24.7118 17.798 24.8798 14.8517H20.4404Z" fill="white"/>
<path d="M5.31844 14.8517H0.878906C1.04695 17.798 2.27484 20.5456 4.38061 22.6512C4.51814 22.7888 4.69838 22.8575 4.87861 22.8575C5.05884 22.8575 5.23913 22.7887 5.37666 22.6512L7.51003 20.5177C7.78505 20.2427 7.78505 19.7967 7.51003 19.5216C6.9533 18.9649 5.55094 17.4062 5.31844 14.8517Z" fill="white"/>
<path d="M20.863 5.17009C18.8342 3.36193 16.2924 2.30875 13.582 2.15317V6.59096C15.1108 6.73065 16.5446 7.3247 17.7254 8.30771L20.863 5.17009Z" fill="white"/>
<path d="M14.4419 12.598C13.5804 11.7366 12.1788 11.7366 11.3173 12.598C10.4559 13.4595 10.4559 14.8611 11.3173 15.7225C12.4056 16.8108 17.7538 20.2256 18.3601 20.6114C18.6381 20.7883 19.0017 20.7484 19.2348 20.5154C19.4678 20.2824 19.5077 19.9188 19.3308 19.6407C18.945 19.0345 15.5301 13.6862 14.4419 12.598Z" fill="white"/>
</g>
<defs>
<clipPath id="clip0">
<rect width="24" height="24" fill="white" transform="translate(0.878906 0.50531)"/>
</clipPath>
</defs>
</svg>
