<svg width="13" height="12" viewBox="0 0 13 12" fill="none" xmlns="http://www.w3.org/2000/svg">
<path fill-rule="evenodd" clip-rule="evenodd" d="M1.33398 10.0462C0.887045 10.4931 0.887045 11.2178 1.33398 11.6647C1.78092 12.1116 2.50555 12.1116 2.95248 11.6647L6.99891 7.61826L11.0455 11.6649C11.4925 12.1118 12.2171 12.1118 12.664 11.6649C13.111 11.2179 13.111 10.4933 12.664 10.0464L8.61741 5.99976L12.6635 1.9537C13.1104 1.50676 13.1104 0.782138 12.6635 0.335202C12.2165 -0.111734 11.4919 -0.111734 11.045 0.335202L6.99891 4.38127L2.95303 0.33539C2.5061 -0.111546 1.78147 -0.111545 1.33453 0.33539C0.887595 0.782326 0.887595 1.50695 1.33453 1.95389L5.38041 5.99977L1.33398 10.0462Z" fill="#111111"/>
</svg>
