<svg width="20" height="20" viewBox="0 0 20 20" fill="none" xmlns="http://www.w3.org/2000/svg">
<path d="M14.7425 9.03527L10.9647 5.2575C10.7988 5.09156 10.5779 5 10.3433 5H5.87891C5.39426 5 5 5.39426 5 5.87891V14.1211C5 14.6057 5.39426 15 5.87891 15H10.5859C10.697 15 10.7982 14.9373 10.848 14.8381C11.5206 13.4922 12.8929 12.6562 14.3978 12.6562H14.707C14.869 12.6562 15 12.5252 15 12.3633V9.65668C15 9.42207 14.9084 9.20121 14.7425 9.03527ZM8.51562 12.0703C8.51562 12.7166 7.99006 13.2422 7.34375 13.2422C6.69744 13.2422 6.17188 12.7166 6.17188 12.0703V11.7773C6.17188 11.6154 6.30291 11.4844 6.46484 11.4844H8.22266C8.38459 11.4844 8.51562 11.6154 8.51562 11.7773V12.0703ZM13.5352 10.293H6.46484C6.30291 10.293 6.17188 10.1619 6.17188 10V6.46484C6.17188 6.30291 6.30291 6.17188 6.46484 6.17188H10.1004C10.1782 6.17188 10.2526 6.20277 10.3076 6.25771L13.7423 9.69244C13.8993 9.84943 13.8599 10.293 13.5352 10.293Z" fill="white"/>
</svg>
