<svg width="116" height="32" viewBox="0 0 116 32" fill="none" xmlns="http://www.w3.org/2000/svg">
<path d="M39.4842 1.40514C39.3247 2.18833 37.9023 9.37527 36.296 17.3915L33.4021 31.9611L43.8127 31.9957C49.5514 32.0072 54.26 31.9957 54.2968 31.9611C54.3704 31.9035 55.4127 26.7667 55.425 26.4558C55.425 26.2715 55.0203 26.26 48.5459 26.26H41.6668L41.7281 25.9951C41.7649 25.8568 42.1083 24.1062 42.4884 22.1136C42.8685 20.1211 43.2118 18.4511 43.2364 18.405C43.2732 18.3474 46.3877 18.3129 50.1522 18.3129H57.0068L57.1294 17.7024C57.3133 16.8617 58.1226 12.7729 58.1226 12.7153C58.1226 12.6923 55.0326 12.6693 51.2558 12.6693C44.4503 12.6693 44.389 12.6693 44.389 12.4389C44.389 12.2431 45.3209 7.20997 45.5662 6.06973L45.6398 5.75876H53.6592C59.2998 5.75876 61.6787 5.79331 61.6787 5.88545C61.6787 5.95456 60.526 11.8285 59.1036 18.9463C57.6935 26.0526 56.5285 31.9035 56.5285 31.9496C56.5285 31.9842 61.1146 32.0072 66.7307 31.9957L76.9328 31.9611L77.4968 29.1393L78.0609 26.3175L71.4639 26.283C65.6271 26.26 64.8668 26.2369 64.8668 26.0757C64.8668 25.9144 66.1421 19.1191 66.277 18.5662L66.3383 18.3129H72.6288H78.907L79.4343 15.6293C79.7163 14.1666 79.9493 12.8651 79.9493 12.7499C79.9493 12.5656 79.5691 12.5541 73.6956 12.5541H67.4419L67.5154 12.1049C67.5522 11.8515 67.8465 10.3427 68.1653 8.73028L68.7294 5.81635L75.2896 5.75876C80.9915 5.71269 81.8499 5.67814 81.8867 5.52841C81.8989 5.43627 82.1565 4.14631 82.4507 2.67207L82.978 0H61.3721H39.7662L39.4842 1.40514Z" fill="#09A83F"/>
<path d="M94.296 3.98563C91.4144 4.31964 88.7535 5.1489 87.1962 6.18548C85.504 7.3142 84.3391 8.53505 82.9535 10.6543C81.1387 13.407 80.7708 14.6163 80.7708 17.7951C80.7708 20.1793 80.9548 20.9164 82.0338 23.0241C82.6837 24.2795 82.8799 24.5559 83.726 25.3276C84.8419 26.3757 86.3256 27.3777 87.5886 27.9421C88.8271 28.4949 89.9184 28.5755 95.277 28.541L99.4951 28.5064L100.905 25.3737L102.303 22.2294H105.957C109.366 22.2294 109.624 22.2409 109.624 22.4252C109.624 22.5404 109.734 23.8534 109.869 25.3391C110.004 26.8249 110.114 28.0803 110.114 28.1264C110.114 28.1839 111.438 28.2185 113.057 28.2185C115.681 28.2185 116 28.1955 116 28.0342C116 27.8154 113.106 6.0703 112.91 4.86096L112.787 4.0317H109.268H105.749L104.032 7.46392C101.359 12.8311 95.5345 23.4618 95.2279 23.5424C94.7006 23.6806 92.2482 23.6115 91.6719 23.4502C91.3531 23.3581 90.6786 22.9895 90.1882 22.6325C88.0791 21.1122 87.3188 19.7877 87.1226 17.2769C87.0123 15.8026 87.1717 15.1807 88.0545 13.4761C88.7412 12.1516 88.9006 11.9558 89.9307 10.9998C91.7087 9.34128 93.1066 8.79996 95.8901 8.67326C97.6313 8.60416 98.8085 8.73085 100.108 9.157C100.586 9.31824 101.003 9.39887 101.052 9.3528C101.151 9.26066 102.512 5.40229 102.512 5.24104C102.512 5.10283 100.685 4.43481 99.6178 4.18143C98.9066 4.02018 95.2156 3.88197 94.296 3.98563ZM108.459 9.69832C108.52 9.85957 109.231 17.7721 109.195 17.8297C109.182 17.8412 108.066 17.8412 106.718 17.8297L104.277 17.7951L105.957 13.9944C106.877 11.8982 107.723 10.0554 107.833 9.87109C108.03 9.5486 108.361 9.45646 108.459 9.69832Z" fill="black"/>
<path d="M5.57928 4.28455C5.30951 5.34417 0 27.8955 0 27.9876C0 28.1258 5.95941 28.1489 6.04524 28.0107C6.08203 27.9646 6.58478 25.8914 7.18562 23.4036L8.26469 18.8888H12.7649C16.9463 18.8888 17.2774 18.8773 17.3387 18.6815C17.3755 18.5778 17.5717 17.6334 17.7801 16.5853C17.9886 15.5372 18.197 14.5697 18.2338 14.42L18.2951 14.1666H13.8685C10.288 14.1666 9.44186 14.132 9.44186 14.0169C9.44186 13.8671 10.4964 9.34075 10.619 8.94915C10.6803 8.76487 11.0359 8.75335 15.9531 8.75335H21.2135L21.1522 9.00674C20.9315 9.89359 16.6765 27.9416 16.6765 28.0107C16.6765 28.0682 20.1958 28.0913 24.4998 28.0798L32.3108 28.0452L32.7645 25.9721C33.0097 24.8318 33.2182 23.7837 33.2182 23.634L33.2304 23.3806H28.5708C26.008 23.3806 23.9112 23.3461 23.9112 23.3115C23.9112 23.2424 28.252 4.88346 28.4114 4.28455L28.4727 4.03117H17.0567H5.64059L5.57928 4.28455Z" fill="black"/>
</svg>
