<svg width="17" height="17" viewBox="0 0 17 17" fill="none" xmlns="http://www.w3.org/2000/svg">
<g clip-path="url(#clip0)">
<path d="M13.6502 8.54333C13.9137 8.54333 14.1273 8.75696 14.1273 9.02039C14.1273 11.7197 12.0548 13.9436 9.41749 14.1852V15.4697H8.46314V14.1852C5.82593 13.9435 3.75342 11.7197 3.75342 9.02039C3.75342 8.75696 3.96704 8.54333 4.23059 8.54333C4.49414 8.54333 4.70777 8.75696 4.70777 9.02039C4.70777 11.3544 6.60645 13.253 8.94032 13.253C11.2743 13.253 13.173 11.3544 13.173 9.02039C13.173 8.75696 13.3866 8.54333 13.6502 8.54333Z" fill="white"/>
<path d="M8.94043 12.0757C10.6251 12.0757 11.9957 10.7051 11.9957 9.0204V3.47925C11.9957 1.79468 10.6251 0.424072 8.94043 0.424072C7.25586 0.424072 5.88525 1.79468 5.88525 3.47925V9.0204C5.88525 10.7051 7.25586 12.0757 8.94043 12.0757Z" fill="white"/>
</g>
<defs>
<clipPath id="clip0">
<rect width="16" height="16" fill="white" transform="translate(0.909668 0.455322)"/>
</clipPath>
</defs>
</svg>
