<svg width="20" height="20" viewBox="0 0 20 20" fill="none" xmlns="http://www.w3.org/2000/svg">
<g clip-path="url(#clip0)">
<path d="M13.9926 5.00007L13.2583 5.73436L14.2655 6.74156L14.9998 6.00727L13.9926 5.00007Z" fill="white"/>
<path d="M11.9393 5.317L10.8378 6.41848C10.8094 6.44692 10.7866 6.48047 10.7706 6.51737L10.1346 7.98836C10.0827 8.10835 10.1093 8.24786 10.2018 8.34032L11.6597 9.79822C11.7207 9.85926 11.8023 9.89162 11.8852 9.89162C11.9278 9.89162 11.9708 9.88304 12.0116 9.86543L13.4827 9.22948C13.5196 9.21353 13.5532 9.19071 13.5816 9.16228L14.6831 8.0608L11.9393 5.317Z" fill="white"/>
<path d="M6.63518 12.3572L5.27588 13.7165L6.28308 14.7237L7.64238 13.3644L6.63518 12.3572Z" fill="white"/>
<path d="M10.5994 11.3562C10.5994 11.1865 10.5333 11.027 10.4133 10.907L9.09299 9.58671C8.97299 9.46671 8.81347 9.40066 8.64378 9.40066C8.4741 9.40066 8.31459 9.46673 8.19459 9.58671L7.39898 10.3823L6.58554 10.3653C6.49783 10.3634 6.41488 10.3972 6.35346 10.4586L5.09338 11.7187C4.96887 11.8432 4.96887 12.045 5.09338 12.1695L5.50751 12.5837L6.41015 11.681C6.46994 11.6212 6.55103 11.5876 6.63556 11.5876C6.72009 11.5876 6.8012 11.6212 6.86098 11.681L8.319 13.139C8.44351 13.2635 8.44351 13.4654 8.319 13.5899L7.41634 14.4925L7.83046 14.9066C7.8927 14.9689 7.9743 15 8.05588 15C8.13746 15 8.21906 14.9689 8.28129 14.9066L9.54138 13.6466C9.60281 13.5851 9.63652 13.5013 9.6347 13.4145L9.61769 12.601L10.4133 11.8055C10.5333 11.6854 10.5994 11.5259 10.5994 11.3562ZM9.30629 11.5626C9.24404 11.6249 9.16244 11.656 9.08086 11.656C8.99928 11.656 8.91768 11.6249 8.85546 11.5626L8.43724 11.1444C8.31273 11.0199 8.31273 10.8181 8.43724 10.6936C8.56173 10.5691 8.76358 10.5691 8.88809 10.6936L9.30631 11.1118C9.43078 11.2363 9.43078 11.4382 9.30629 11.5626Z" fill="white"/>
</g>
<defs>
<clipPath id="clip0">
<rect width="10" height="10" fill="white" transform="translate(5 5)"/>
</clipPath>
</defs>
</svg>
