<svg width="20" height="20" viewBox="0 0 20 20" fill="none" xmlns="http://www.w3.org/2000/svg">
<path d="M16.3951 9.16734C15.9026 9.16734 15.5021 9.56791 15.5021 10.0603V10.9534H14.9067V9.83478C14.9067 9.52142 14.7797 9.21445 14.5579 8.99293L13.8905 8.32549C13.6689 8.10369 13.362 7.97666 13.0486 7.97666H11.3347V6.78601H12.2277C12.7201 6.78601 13.1207 6.38544 13.1207 5.893C13.1207 5.40057 12.7201 5 12.2277 5H8.65568C8.16324 5 7.76267 5.40057 7.76267 5.893C7.76267 6.38544 8.16324 6.78601 8.65568 6.78601H9.54868V7.97669H8.43011C8.11675 7.97669 7.80978 8.10372 7.58826 8.32552L6.7464 9.16737H6.27431C5.78188 9.16737 5.38131 9.56794 5.38131 10.0604V10.9534H4.78601V10.0604C4.78601 9.56794 4.38544 9.16737 3.893 9.16737C3.40057 9.16737 3 9.56794 3 10.0604V13.6324C3 14.1248 3.40057 14.5254 3.893 14.5254C4.38544 14.5254 4.78601 14.1248 4.78601 13.6324V12.7394H5.38134V13.6324C5.38134 14.1248 5.7819 14.5254 6.27434 14.5254H6.74643L7.58828 15.3673C7.80981 15.5891 8.11678 15.7161 8.43014 15.7161H12.4533C12.7666 15.7161 13.0736 15.5891 13.2951 15.3673L14.5579 14.1045C14.7797 13.883 14.9067 13.576 14.9067 13.2626V12.7394H15.5021V13.6324C15.5021 14.1248 15.9026 14.5254 16.3951 14.5254C16.8875 14.5254 17.2881 14.1248 17.2881 13.6324V10.0604C17.2881 9.56794 16.8875 9.16734 16.3951 9.16734Z" fill="white"/>
</svg>
