<svg width="20" height="20" viewBox="0 0 20 20" fill="none" xmlns="http://www.w3.org/2000/svg">
<path d="M14.9267 5.57324L13.9267 4.57323C13.8291 4.47557 13.6709 4.47557 13.5732 4.57323C13.4756 4.6709 13.4756 4.8291 13.5732 4.92674L14.3965 5.74998L13.5732 6.57322C13.5263 6.62009 13.5 6.68356 13.5 6.74998V7.49998C13.5 8.05151 13.9485 8.49999 14.5 8.49999V12.75C14.5 12.8879 14.3879 13 14.25 13C14.112 13 14 12.8879 14 12.75V12.25C14 11.8364 13.6636 11.5 13.25 11.5H13V5C13 4.44848 12.5515 4 12 4H7.00001C6.4485 4 6 4.44848 6 5V14C5.4485 14 5 14.4485 5 15V15.75C5 15.8882 5.11182 16 5.25001 16H13.75C13.8882 16 14 15.8882 14 15.75V15C14 14.4485 13.5515 14 13 14V12H13.25C13.3879 12 13.5 12.112 13.5 12.25V12.75C13.5 13.1636 13.8364 13.5 14.25 13.5C14.6636 13.5 15 13.1636 15 12.75V5.75C15 5.68358 14.9736 5.62011 14.9267 5.57324ZM12 8.25462C12 8.39281 11.8882 8.50463 11.75 8.50463H7.24999C7.11181 8.50463 6.99999 8.39281 6.99999 8.25462V5.24999C6.99999 5.1118 7.11181 4.99998 7.24999 4.99998H11.75C11.8882 4.99998 12 5.1118 12 5.24999V8.25462Z" fill="white"/>
</svg>
