<svg width="34" height="34" viewBox="0 0 34 34" fill="none" xmlns="http://www.w3.org/2000/svg">
<rect x="0.635254" y="0.437012" width="33" height="33" rx="16.5" fill="url(#paint0_linear)"/>
<g clip-path="url(#clip0)">
<path d="M13.1509 15.4097C12.327 15.4097 11.6567 16.0799 11.6567 16.9038V20.9546C11.6567 21.7785 12.327 22.4487 13.1509 22.4487C13.9748 22.4487 14.645 21.7785 14.645 20.9546V16.9038C14.645 16.0799 13.9748 15.4097 13.1509 15.4097Z" fill="white"/>
<path d="M10.6606 16.9039C10.6606 16.7602 10.6796 16.6214 10.7031 16.4844C10.1028 16.6784 9.66455 17.2359 9.66455 17.9V19.9586C9.66455 20.6226 10.1028 21.1801 10.7031 21.3741C10.6796 21.2371 10.6606 21.0983 10.6606 20.9546V16.9039Z" fill="white"/>
<path d="M21.1196 15.4097C20.2957 15.4097 19.6255 16.0799 19.6255 16.9038V20.9546C19.6255 21.7785 20.2957 22.4487 21.1196 22.4487C21.2694 22.4487 21.4112 22.4199 21.5477 22.3787C21.3623 22.9933 20.7977 23.4448 20.1235 23.4448H18.5377C18.3314 22.8664 17.7837 22.4487 17.1353 22.4487C16.3114 22.4487 15.6411 23.119 15.6411 23.9429C15.6411 24.7668 16.3114 25.437 17.1353 25.437C17.7837 25.437 18.3314 25.0194 18.5377 24.4409H20.1235C21.4966 24.4409 22.6138 23.3237 22.6138 21.9507V20.9546V16.9038C22.6138 16.0799 21.9435 15.4097 21.1196 15.4097Z" fill="white"/>
<path d="M23.5674 16.4844C23.5909 16.6214 23.6098 16.7602 23.6098 16.9039V20.9546C23.6098 21.0983 23.5909 21.2371 23.5674 21.3741C24.1676 21.1801 24.6059 20.6226 24.6059 19.9586V17.9C24.6059 17.2359 24.1676 16.6784 23.5674 16.4844Z" fill="white"/>
<path d="M17.1353 8.43701C13.0157 8.43701 9.66455 11.7881 9.66455 15.9077V15.9204C9.96129 15.6958 10.3046 15.5314 10.6835 15.4578C10.9162 12.0977 13.7171 9.43311 17.1353 9.43311C20.5534 9.43311 23.3543 12.0977 23.5871 15.4577C23.9659 15.5314 24.3092 15.6958 24.606 15.9204V15.9077C24.606 11.7881 21.2548 8.43701 17.1353 8.43701Z" fill="white"/>
</g>
<defs>
<linearGradient id="paint0_linear" x1="17.1353" y1="0.437012" x2="17.1353" y2="33.437" gradientUnits="userSpaceOnUse">
<stop stop-color="#E52D27"/>
<stop offset="1" stop-color="#B31217"/>
</linearGradient>
<clipPath id="clip0">
<rect width="17" height="17" fill="white" transform="translate(8.63525 8.43701)"/>
</clipPath>
</defs>
</svg>
