<svg width="20" height="20" viewBox="0 0 20 20" fill="none" xmlns="http://www.w3.org/2000/svg">
<g clip-path="url(#clip0)">
<path d="M13.8083 7.95938L10.8385 8.60882L12.2906 3.52387C12.4167 3.08192 11.8258 2.7988 11.5608 3.17521L5.76829 11.405C5.55049 11.7144 5.8344 12.1297 6.2017 12.0393L8.8479 11.3878L7.40056 16.4776C7.27586 16.9162 7.85642 17.1957 8.12451 16.8341L14.2254 8.60431C14.4505 8.30054 14.1776 7.87866 13.8083 7.95938V7.95938Z" fill="white"/>
<path d="M13.5436 14.5393L12.5593 14.5228L13.0821 13.4947C13.1848 13.2928 13.1043 13.0459 12.9024 12.9433C12.7005 12.8406 12.4536 12.921 12.351 13.123L11.5307 14.7361C11.3639 15.0633 11.5822 15.2777 11.8967 15.3322L12.8787 15.3486L12.3497 16.4064C12.2484 16.609 12.3306 16.8554 12.5332 16.9567C12.7361 17.0582 12.9823 16.9755 13.0834 16.7733L13.9036 15.1328C14.0383 14.8633 13.8434 14.5437 13.5436 14.5393V14.5393Z" fill="white"/>
<path d="M7.15831 3.04437C6.95571 2.94309 6.70936 3.0252 6.60807 3.22777L5.78783 4.86825C5.65443 5.13507 5.84467 5.46177 6.15704 5.46177H7.13154L6.60807 6.50873C6.50677 6.71132 6.5889 6.95764 6.79147 7.05897C6.99445 7.16046 7.24061 7.07775 7.34171 6.87556L8.16195 5.23509C8.29841 4.96214 8.0977 4.64156 7.79512 4.64156H6.81824L7.34171 3.59461C7.44301 3.39201 7.36088 3.14567 7.15831 3.04437V3.04437Z" fill="white"/>
</g>
<defs>
<clipPath id="clip0">
<rect width="14" height="14" fill="white" transform="translate(3 3)"/>
</clipPath>
</defs>
</svg>
