<svg width="11" height="10" viewBox="0 0 11 10" fill="none" xmlns="http://www.w3.org/2000/svg">
<path d="M10.1796 9.74125L9.92956 8.74125C9.81094 8.25613 9.45133 7.866 8.97747 7.70834L7.14413 7.0975C6.69704 6.91125 6.49247 6.19125 6.44829 5.91791C6.78895 5.63463 7.00815 5.23158 7.06079 4.79166C7.05327 4.71652 7.071 4.64102 7.1112 4.57707C7.17616 4.5608 7.22934 4.51428 7.25411 4.45207C7.37407 4.1616 7.44936 3.85465 7.47745 3.54166C7.4775 3.52465 7.47541 3.50771 7.4712 3.49125C7.44135 3.36963 7.36985 3.2623 7.26911 3.18791V2.08332C7.26911 1.41207 7.06411 1.13666 6.84827 0.97707C6.80706 0.65375 6.46081 0 5.18581 0C4.05461 0.0455469 3.14801 0.952148 3.10247 2.08334V3.18793C3.00172 3.26232 2.93022 3.36965 2.90038 3.49127C2.89616 3.50773 2.89407 3.52469 2.89413 3.54168C2.92217 3.85482 2.99747 4.16191 3.11747 4.45252C3.13551 4.51141 3.18284 4.5567 3.24247 4.57211C3.26581 4.58377 3.30956 4.6442 3.30956 4.7917C3.3625 5.23287 3.58297 5.63684 3.9254 5.92004C3.88165 6.19295 3.67831 6.91254 3.24374 7.0942L1.39415 7.70836C0.92065 7.866 0.561275 8.25574 0.442486 8.74045L0.192486 9.74045C0.164185 9.85197 0.231646 9.96533 0.343169 9.99363C0.359829 9.99787 0.376958 10 0.394146 10H9.97748C10.0925 10 10.1858 9.9067 10.1858 9.79164C10.1857 9.77463 10.1837 9.75772 10.1796 9.74125Z" fill="url(#paint0_linear)"/>
<defs>
<linearGradient id="paint0_linear" x1="0.186035" y1="5.00002" x2="10.1858" y2="5.00002" gradientUnits="userSpaceOnUse">
<stop stop-color="#E52D27"/>
<stop offset="1" stop-color="#B31217"/>
</linearGradient>
</defs>
</svg>
